#N canvas 8 23 998 709 10;
#X obj 50 50 cnv 15 50 50 empty c1 empty 20 12 0 14 -257472 -66577
0;
#X obj 195 243 pack f f;
#X floatatom 242 219 5 0 0 0 - - -, f 5;
#X msg 196 273 \; c1 delta \$1 \$2;
#X msg 190 208 1;
#X msg 149 215 -1;
#X obj 360 294 pack f f;
#X msg 361 324 \; c1 vis_size \$1 \$2;
#X obj 193 395 pack f f;
#X floatatom 242 364 5 0 0 0 - - -, f 5;
#X msg 194 425 \; c1 color \$1 \$2;
#X text 241 338 label color;
#X text 159 335 canvas color;
#X msg 355 259 50;
#X msg 418 254 50;
#X msg 189 359 10;
#X floatatom 143 362 5 0 0 0 - - -, f 5;
#X text 236 189 move- hor/vert from curr pos;
#X obj 535 291 pack f f;
#X msg 530 256 50;
#X msg 593 251 50;
#X text 357 232 size of canvas;
#X text 534 231 position on screen;
#X msg 536 321 \; c1 pos \$1 \$2;
#X connect 1 0 3 0;
#X connect 2 0 1 1;
#X connect 4 0 1 0;
#X connect 5 0 1 0;
#X connect 6 0 7 0;
#X connect 8 0 10 0;
#X connect 9 0 8 1;
#X connect 13 0 6 0;
#X connect 14 0 6 1;
#X connect 15 0 8 0;
#X connect 16 0 8 0;
#X connect 18 0 23 0;
#X connect 19 0 18 0;
#X connect 20 0 18 1;
#X coords 0 -1 1 1 85 60 1 100 100;
