#N canvas 487 141 718 526 10;
#X obj 124 27 inlet;
#X obj 161 350 outlet~;
#X obj 183 268 vline~;
#X obj 162 288 *~;
#X obj 162 179 *~ 600;
#X text 254 149 44100/tabLength;
#X text 219 179 tabLength;
#X obj 164 153 phasor~ 73.5;
#X obj 324 233 / 127;
#X obj 163 236 tabread4~ nes_tri;
#X obj 137 123 expr 73.5 * $f1;
#X obj 133 96 expr pow(2 \, ($f1/12));
#X obj 128 76 - 36;
#X obj 68 215 r wave_type;
#X obj 125 50 unpack 0 0;
#X obj 162 327 *~ 0.5;
#X obj 162 210 *~ 1;
#X msg 326 255 \$1 60 \, 0 1000 100;
#X obj 401 69 r PITCH_LFO_SPEED;
#X obj 403 119 r PITCH_LFO_GAIN;
#X obj 85 178 r pitchMod;
#X floatatom 20 197 5 0 0 0 - - -;
#X floatatom 48 79 5 0 0 0 - - -;
#X connect 0 0 14 0;
#X connect 2 0 3 1;
#X connect 3 0 15 0;
#X connect 4 0 16 0;
#X connect 7 0 4 0;
#X connect 8 0 17 0;
#X connect 9 0 3 0;
#X connect 10 0 7 0;
#X connect 11 0 10 0;
#X connect 12 0 11 0;
#X connect 13 0 9 0;
#X connect 14 0 12 0;
#X connect 14 0 22 0;
#X connect 14 1 8 0;
#X connect 15 0 1 0;
#X connect 16 0 9 0;
#X connect 17 0 2 0;
#X connect 20 0 21 0;
