#N canvas 316 173 450 300 10;
#X obj 100 100 tgl 20 0 empty empty empty 17 7 0 10 -257985 -1 -1 0
1;
#X obj 170 244 spigot;
#X obj 170 271 s noteTrig;
#X obj 166 118 t b b;
#X msg 264 134 100;
#X obj 170 219 pack 0 0;
#X obj 211 85 delay 1;
#X msg 297 133 0;
#X obj 210 112 t b b;
#X obj 217 162 inlet;
#X obj 170 55 inlet;
#X obj 200 184 int;
#X obj 93 55 r clearAll;
#X msg 93 74 0;
#X connect 0 0 1 1;
#X connect 1 0 2 0;
#X connect 3 0 11 0;
#X connect 3 1 4 0;
#X connect 4 0 5 1;
#X connect 5 0 1 0;
#X connect 6 0 8 0;
#X connect 7 0 5 1;
#X connect 8 0 11 0;
#X connect 8 1 7 0;
#X connect 9 0 11 1;
#X connect 10 0 3 0;
#X connect 10 0 6 0;
#X connect 11 0 5 0;
#X connect 12 0 13 0;
#X connect 13 0 0 0;
#X coords 0 -1 1 1 20 20 2 100 100;
