#N canvas 293 23 758 551 10;
#X obj 149 123 sequencerTick;
#X text 17 38 left in= click. right in = note;
#N canvas 0 22 768 549 metronome 0;
#X obj 32 92 expr $f2 + $f1;
#X msg 31 68 1;
#X obj 29 46 metro 100;
#X obj 29 28 tgl 15 0 empty empty empty 17 7 0 10 -262144 -1 -1 1 1
;
#X obj 30 9 loadbang;
#X obj 33 154 select 0 1 2 3 4 5 6 7;
#X obj 145 206 s seqClick7;
#X obj 32 125 expr $f1 % 8;
#X obj 33 179 s seqClick0;
#X obj 49 196 s seqClick1;
#X obj 65 213 s seqClick2;
#X obj 82 230 s seqClick3;
#X obj 97 247 s seqClick4;
#X obj 113 172 s seqClick5;
#X obj 129 189 s seqClick6;
#X obj 151 10 r metroBPM;
#X obj 151 33 expr 60000 / $f1;
#X obj 151 57 / 4;
#X connect 0 0 7 0;
#X connect 1 0 0 0;
#X connect 2 0 1 0;
#X connect 3 0 2 0;
#X connect 4 0 3 0;
#X connect 5 0 8 0;
#X connect 5 1 9 0;
#X connect 5 2 10 0;
#X connect 5 3 11 0;
#X connect 5 4 12 0;
#X connect 5 5 13 0;
#X connect 5 6 14 0;
#X connect 5 7 6 0;
#X connect 7 0 0 1;
#X connect 7 0 5 0;
#X connect 15 0 16 0;
#X connect 16 0 17 0;
#X connect 17 0 2 1;
#X restore 654 47 pd metronome;
#X obj 149 60 r seqClick0;
#X obj 183 82 r seqClick1;
#X obj 219 60 r seqClick2;
#X obj 253 82 r seqClick3;
#X obj 289 60 r seqClick4;
#X obj 323 82 r seqClick5;
#X obj 359 60 r seqClick6;
#X obj 393 82 r seqClick7;
#N canvas 0 22 491 283 notes 0;
#X obj 28 20 loadbang;
#X obj 97 35 bng 15 250 50 0 empty empty empty 17 7 0 10 -262144 -1
-1;
#X obj 28 55 pack 60 61 62 63 64 65 66 67 68 69 70 71 72;
#X obj 28 77 unpack 0 0 0 0 0 0 0 0 0 0 0 0 0;
#X obj 28 101 s note0;
#X obj 43 118 s note1;
#X obj 61 135 s note2;
#X obj 75 153 s note3;
#X obj 91 101 s note4;
#X obj 106 118 s note5;
#X obj 124 135 s note6;
#X obj 138 153 s note7;
#X obj 154 99 s note8;
#X obj 169 116 s note9;
#X obj 187 133 s note10;
#X obj 201 151 s note11;
#X obj 215 98 s note12;
#X connect 0 0 2 0;
#X connect 1 0 2 0;
#X connect 2 0 3 0;
#X connect 3 0 4 0;
#X connect 3 1 5 0;
#X connect 3 2 6 0;
#X connect 3 3 7 0;
#X connect 3 4 8 0;
#X connect 3 5 9 0;
#X connect 3 6 10 0;
#X connect 3 7 11 0;
#X connect 3 8 12 0;
#X connect 3 9 13 0;
#X connect 3 10 14 0;
#X connect 3 11 15 0;
#X connect 3 12 16 0;
#X restore 679 189 pd notes;
#X obj 50 106 r note0;
#X obj 50 126 r note1;
#X obj 49 146 r note2;
#X obj 49 166 r note3;
#X obj 50 186 r note4;
#X obj 50 206 r note5;
#X obj 49 226 r note6;
#X obj 49 246 r note7;
#X obj 50 266 r note8;
#X obj 50 286 r note9;
#X obj 49 306 r note10;
#X obj 49 326 r note11;
#X obj 49 346 r note12;
#X obj 512 149 s metroBPM;
#X floatatom 476 150 5 1 1000 0 - - -, f 5;
#X text 474 134 BPM;
#X obj 149 143 sequencerTick;
#X obj 183 123 sequencerTick;
#X obj 183 143 sequencerTick;
#X obj 149 163 sequencerTick;
#X obj 149 183 sequencerTick;
#X obj 183 163 sequencerTick;
#X obj 183 183 sequencerTick;
#X obj 219 123 sequencerTick;
#X obj 219 143 sequencerTick;
#X obj 253 123 sequencerTick;
#X obj 253 143 sequencerTick;
#X obj 219 163 sequencerTick;
#X obj 219 183 sequencerTick;
#X obj 253 163 sequencerTick;
#X obj 253 183 sequencerTick;
#X obj 289 123 sequencerTick;
#X obj 289 143 sequencerTick;
#X obj 323 123 sequencerTick;
#X obj 323 143 sequencerTick;
#X obj 289 163 sequencerTick;
#X obj 289 183 sequencerTick;
#X obj 323 163 sequencerTick;
#X obj 323 183 sequencerTick;
#X obj 359 123 sequencerTick;
#X obj 359 143 sequencerTick;
#X obj 393 123 sequencerTick;
#X obj 393 143 sequencerTick;
#X obj 359 163 sequencerTick;
#X obj 359 183 sequencerTick;
#X obj 393 163 sequencerTick;
#X obj 393 183 sequencerTick;
#X obj 149 203 sequencerTick;
#X obj 149 223 sequencerTick;
#X obj 183 203 sequencerTick;
#X obj 183 223 sequencerTick;
#X obj 149 243 sequencerTick;
#X obj 149 263 sequencerTick;
#X obj 183 243 sequencerTick;
#X obj 183 263 sequencerTick;
#X obj 219 203 sequencerTick;
#X obj 219 223 sequencerTick;
#X obj 253 203 sequencerTick;
#X obj 253 223 sequencerTick;
#X obj 219 243 sequencerTick;
#X obj 219 263 sequencerTick;
#X obj 253 243 sequencerTick;
#X obj 253 263 sequencerTick;
#X obj 289 203 sequencerTick;
#X obj 289 223 sequencerTick;
#X obj 323 203 sequencerTick;
#X obj 323 223 sequencerTick;
#X obj 289 243 sequencerTick;
#X obj 289 263 sequencerTick;
#X obj 323 243 sequencerTick;
#X obj 323 263 sequencerTick;
#X obj 359 203 sequencerTick;
#X obj 359 223 sequencerTick;
#X obj 393 203 sequencerTick;
#X obj 393 223 sequencerTick;
#X obj 359 243 sequencerTick;
#X obj 359 263 sequencerTick;
#X obj 393 243 sequencerTick;
#X obj 393 263 sequencerTick;
#X obj 149 283 sequencerTick;
#X obj 149 303 sequencerTick;
#X obj 183 283 sequencerTick;
#X obj 183 303 sequencerTick;
#X obj 149 323 sequencerTick;
#X obj 149 343 sequencerTick;
#X obj 183 323 sequencerTick;
#X obj 183 343 sequencerTick;
#X obj 219 283 sequencerTick;
#X obj 219 303 sequencerTick;
#X obj 253 283 sequencerTick;
#X obj 253 303 sequencerTick;
#X obj 219 323 sequencerTick;
#X obj 219 343 sequencerTick;
#X obj 253 323 sequencerTick;
#X obj 253 343 sequencerTick;
#X obj 289 283 sequencerTick;
#X obj 289 303 sequencerTick;
#X obj 323 283 sequencerTick;
#X obj 323 303 sequencerTick;
#X obj 289 323 sequencerTick;
#X obj 289 343 sequencerTick;
#X obj 323 323 sequencerTick;
#X obj 323 343 sequencerTick;
#X obj 359 283 sequencerTick;
#X obj 359 303 sequencerTick;
#X obj 393 283 sequencerTick;
#X obj 393 303 sequencerTick;
#X obj 359 323 sequencerTick;
#X obj 359 343 sequencerTick;
#X obj 393 323 sequencerTick;
#X obj 393 343 sequencerTick;
#X obj 149 363 sequencerTick;
#X obj 183 363 sequencerTick;
#X obj 219 363 sequencerTick;
#X obj 253 363 sequencerTick;
#X obj 289 363 sequencerTick;
#X obj 323 363 sequencerTick;
#X obj 359 363 sequencerTick;
#X obj 393 363 sequencerTick;
#X obj 477 215 s clearAll;
#X obj 476 185 bng 15 250 50 0 empty empty empty 17 7 0 10 -262144
-1 -1;
#X text 498 185 Clear all;
#X connect 3 0 0 0;
#X connect 3 0 28 0;
#X connect 3 0 31 0;
#X connect 3 0 32 0;
#X connect 3 0 59 0;
#X connect 3 0 60 0;
#X connect 3 0 63 0;
#X connect 3 0 64 0;
#X connect 3 0 91 0;
#X connect 3 0 92 0;
#X connect 3 0 95 0;
#X connect 3 0 96 0;
#X connect 3 0 123 0;
#X connect 4 0 29 0;
#X connect 4 0 30 0;
#X connect 4 0 33 0;
#X connect 4 0 34 0;
#X connect 4 0 61 0;
#X connect 4 0 62 0;
#X connect 4 0 65 0;
#X connect 4 0 66 0;
#X connect 4 0 93 0;
#X connect 4 0 94 0;
#X connect 4 0 97 0;
#X connect 4 0 98 0;
#X connect 4 0 124 0;
#X connect 5 0 35 0;
#X connect 5 0 36 0;
#X connect 5 0 39 0;
#X connect 5 0 40 0;
#X connect 5 0 67 0;
#X connect 5 0 68 0;
#X connect 5 0 71 0;
#X connect 5 0 72 0;
#X connect 5 0 99 0;
#X connect 5 0 100 0;
#X connect 5 0 103 0;
#X connect 5 0 104 0;
#X connect 5 0 125 0;
#X connect 6 0 37 0;
#X connect 6 0 38 0;
#X connect 6 0 41 0;
#X connect 6 0 42 0;
#X connect 6 0 69 0;
#X connect 6 0 70 0;
#X connect 6 0 73 0;
#X connect 6 0 74 0;
#X connect 6 0 101 0;
#X connect 6 0 102 0;
#X connect 6 0 105 0;
#X connect 6 0 106 0;
#X connect 6 0 126 0;
#X connect 7 0 43 0;
#X connect 7 0 44 0;
#X connect 7 0 47 0;
#X connect 7 0 48 0;
#X connect 7 0 75 0;
#X connect 7 0 76 0;
#X connect 7 0 79 0;
#X connect 7 0 80 0;
#X connect 7 0 107 0;
#X connect 7 0 108 0;
#X connect 7 0 111 0;
#X connect 7 0 112 0;
#X connect 7 0 127 0;
#X connect 8 0 45 0;
#X connect 8 0 46 0;
#X connect 8 0 49 0;
#X connect 8 0 50 0;
#X connect 8 0 77 0;
#X connect 8 0 78 0;
#X connect 8 0 81 0;
#X connect 8 0 82 0;
#X connect 8 0 109 0;
#X connect 8 0 110 0;
#X connect 8 0 113 0;
#X connect 8 0 114 0;
#X connect 8 0 128 0;
#X connect 9 0 51 0;
#X connect 9 0 52 0;
#X connect 9 0 55 0;
#X connect 9 0 56 0;
#X connect 9 0 83 0;
#X connect 9 0 84 0;
#X connect 9 0 87 0;
#X connect 9 0 88 0;
#X connect 9 0 115 0;
#X connect 9 0 116 0;
#X connect 9 0 119 0;
#X connect 9 0 120 0;
#X connect 9 0 129 0;
#X connect 10 0 53 0;
#X connect 10 0 54 0;
#X connect 10 0 57 0;
#X connect 10 0 58 0;
#X connect 10 0 85 0;
#X connect 10 0 86 0;
#X connect 10 0 89 0;
#X connect 10 0 90 0;
#X connect 10 0 117 0;
#X connect 10 0 118 0;
#X connect 10 0 121 0;
#X connect 10 0 122 0;
#X connect 10 0 130 0;
#X connect 12 0 0 1;
#X connect 12 0 29 1;
#X connect 12 0 35 1;
#X connect 12 0 37 1;
#X connect 12 0 43 1;
#X connect 12 0 45 1;
#X connect 12 0 51 1;
#X connect 12 0 53 1;
#X connect 13 0 28 1;
#X connect 13 0 30 1;
#X connect 13 0 36 1;
#X connect 13 0 38 1;
#X connect 13 0 44 1;
#X connect 13 0 46 1;
#X connect 13 0 52 1;
#X connect 13 0 54 1;
#X connect 14 0 31 1;
#X connect 14 0 33 1;
#X connect 14 0 39 1;
#X connect 14 0 41 1;
#X connect 14 0 47 1;
#X connect 14 0 49 1;
#X connect 14 0 55 1;
#X connect 14 0 57 1;
#X connect 15 0 32 1;
#X connect 15 0 34 1;
#X connect 15 0 40 1;
#X connect 15 0 42 1;
#X connect 15 0 48 1;
#X connect 15 0 50 1;
#X connect 15 0 56 1;
#X connect 15 0 58 1;
#X connect 16 0 59 1;
#X connect 16 0 61 1;
#X connect 16 0 67 1;
#X connect 16 0 69 1;
#X connect 16 0 75 1;
#X connect 16 0 77 1;
#X connect 16 0 83 1;
#X connect 16 0 85 1;
#X connect 17 0 60 1;
#X connect 17 0 62 1;
#X connect 17 0 68 1;
#X connect 17 0 70 1;
#X connect 17 0 76 1;
#X connect 17 0 78 1;
#X connect 17 0 84 1;
#X connect 17 0 86 1;
#X connect 18 0 63 1;
#X connect 18 0 65 1;
#X connect 18 0 71 1;
#X connect 18 0 73 1;
#X connect 18 0 79 1;
#X connect 18 0 81 1;
#X connect 18 0 87 1;
#X connect 18 0 89 1;
#X connect 19 0 64 1;
#X connect 19 0 66 1;
#X connect 19 0 72 1;
#X connect 19 0 74 1;
#X connect 19 0 80 1;
#X connect 19 0 82 1;
#X connect 19 0 88 1;
#X connect 19 0 90 1;
#X connect 20 0 91 1;
#X connect 20 0 93 1;
#X connect 20 0 99 1;
#X connect 20 0 101 1;
#X connect 20 0 107 1;
#X connect 20 0 109 1;
#X connect 20 0 115 1;
#X connect 20 0 117 1;
#X connect 21 0 92 1;
#X connect 21 0 94 1;
#X connect 21 0 100 1;
#X connect 21 0 102 1;
#X connect 21 0 108 1;
#X connect 21 0 110 1;
#X connect 21 0 116 1;
#X connect 21 0 118 1;
#X connect 22 0 95 1;
#X connect 22 0 97 1;
#X connect 22 0 103 1;
#X connect 22 0 105 1;
#X connect 22 0 111 1;
#X connect 22 0 113 1;
#X connect 22 0 119 1;
#X connect 22 0 121 1;
#X connect 23 0 96 1;
#X connect 23 0 98 1;
#X connect 23 0 104 1;
#X connect 23 0 106 1;
#X connect 23 0 112 1;
#X connect 23 0 114 1;
#X connect 23 0 120 1;
#X connect 23 0 122 1;
#X connect 24 0 123 1;
#X connect 24 0 124 1;
#X connect 24 0 125 1;
#X connect 24 0 126 1;
#X connect 24 0 127 1;
#X connect 24 0 128 1;
#X connect 24 0 129 1;
#X connect 24 0 130 1;
#X connect 26 0 25 0;
#X connect 132 0 131 0;
#X coords 0 -1 1 1 500 400 2 100 100;
