#N canvas 0 22 607 399 10;
#X obj 110 128 tgl 15 0 empty empty empty 17 7 0 10 -262144 -1 -1 0
1;
#X obj 111 159 tgl 15 0 empty empty empty 17 7 0 10 -262144 -1 -1 0
1;
#X obj 140 175 tgl 15 0 empty empty empty 17 7 0 10 -262144 -1 -1 0
1;
#X obj 167 156 tgl 15 0 empty empty empty 17 7 0 10 -262144 -1 -1 0
1;
#X obj 164 121 tgl 15 0 empty empty empty 17 7 0 10 -262144 -1 -262144
0 1;
#X obj 135 108 tgl 15 0 empty empty empty 17 7 0 10 -262144 -1 -1 0
1;
#X connect 0 0 1 0;
#X connect 1 0 2 0;
#X connect 2 0 3 0;
#X connect 3 0 4 0;
#X connect 4 0 5 0;
#X connect 5 0 0 0;
#X coords 0 -1 1 1 100 100 2 100 100;
